<svg xmlns="http://www.w3.org/2000/svg" viewBox="0 0 20 14" width="20" height="14">
	<defs>
		<clipPath clipPathUnits="userSpaceOnUse" id="cp1">
			<path d="M-695 -834L1225 -834L1225 2962L-695 2962Z" />
		</clipPath>
	</defs>
	<style>
		tspan { white-space:pre }
		.shp0 { fill: #ffffff } 
	</style>
	<g id="Home" clip-path="url(#cp1)">
		<g id="arrow_upward">
			<path id="Icon color" class="shp0" d="M0 7.5L0 6.5C0 6.22 0.22 6 0.5 6L16.67 6L12.22 1.56C12.13 1.47 12.07 1.34 12.07 1.2C12.07 1.07 12.13 0.94 12.22 0.85L12.93 0.15C13.02 0.06 13.15 0 13.28 0C13.42 0 13.55 0.06 13.64 0.15L19.78 6.28C19.92 6.42 20 6.61 20 6.81L20 7.19C20 7.39 19.92 7.58 19.78 7.72L13.64 13.85C13.55 13.94 13.42 14 13.28 14C13.15 14 13.02 13.94 12.93 13.85L12.22 13.14C12.13 13.05 12.07 12.92 12.07 12.79C12.07 12.66 12.13 12.53 12.22 12.44L16.67 8L0.5 8C0.22 8 0 7.78 0 7.5Z" />
		</g>
	</g>
</svg>