<svg xmlns="http://www.w3.org/2000/svg" viewBox="0 0 44 44" width="44" height="44">
	<defs>
		<clipPath clipPathUnits="userSpaceOnUse" id="cp1">
			<path d="M-681 -679L1239 -679L1239 3117L-681 3117Z" />
		</clipPath>
	</defs>
	<style>
		tspan { white-space:pre }
		.shp0 { fill: #ffffff } 
	</style>
	<g id="Home" clip-path="url(#cp1)">
		<path id="Bandaid" fill-rule="evenodd" class="shp0" d="M41.99 15.99L42.07 16.07L41.07 17.07L41.07 17.07L17.07 41.07C15.26 42.88 12.76 44 10 44C4.48 44 0 39.52 0 34C0 31.24 1.12 28.74 2.93 26.93L26.93 2.93L26.93 2.93L27.93 1.93L28.01 2.01C29.68 0.75 31.75 0 34 0C39.52 0 44 4.48 44 10C44 12.25 43.25 14.32 41.99 15.99ZM4.34 28.34C2.89 29.79 2 31.79 2 34C2 38.42 5.58 42 10 42C12.21 42 14.21 41.11 15.66 39.66L19.45 35.86L8.14 24.55L4.34 28.34ZM9.55 23.14L20.86 34.45L34.45 20.87L23.14 9.55L9.55 23.14ZM34 2C32.3 2 30.73 2.53 29.43 3.44L29.34 3.34L28.34 4.34L28.34 4.34L24.55 8.14L35.86 19.45L39.66 15.66L39.66 15.66L40.66 14.66L40.56 14.56C41.47 13.27 42 11.7 42 10C42 5.58 38.42 2 34 2ZM30 22C29.45 22 29 21.55 29 21C29 20.45 29.45 20 30 20C30.55 20 31 20.45 31 21C31 21.55 30.55 22 30 22ZM27 25C26.45 25 26 24.55 26 24C26 23.45 26.45 23 27 23C27.55 23 28 23.45 28 24C28 24.55 27.55 25 27 25ZM25 20C24.45 20 24 19.55 24 19C24 18.45 24.45 18 25 18C25.55 18 26 18.45 26 19C26 19.55 25.55 20 25 20ZM23 15C22.45 15 22 14.55 22 14C22 13.45 22.45 13 23 13C23.55 13 24 13.45 24 14C24 14.55 23.55 15 23 15ZM23 22C23 22.55 22.55 23 22 23C21.45 23 21 22.55 21 22C21 21.45 21.45 21 22 21C22.55 21 23 21.45 23 22ZM20 18C19.45 18 19 17.55 19 17C19 16.45 19.45 16 20 16C20.55 16 21 16.45 21 17C21 17.55 20.55 18 20 18ZM20 25C20 25.55 19.55 26 19 26C18.45 26 18 25.55 18 25C18 24.45 18.45 24 19 24C19.55 24 20 24.45 20 25ZM17 21C16.45 21 16 20.55 16 20C16 19.45 16.45 19 17 19C17.55 19 18 19.45 18 20C18 20.55 17.55 21 17 21ZM14 24C13.45 24 13 23.55 13 23C13 22.45 13.45 22 14 22C14.55 22 15 22.45 15 23C15 23.55 14.55 24 14 24ZM21 29C21.55 29 22 29.45 22 30C22 30.55 21.55 31 21 31C20.45 31 20 30.55 20 30C20 29.45 20.45 29 21 29ZM24 26C24.55 26 25 26.45 25 27C25 27.55 24.55 28 24 28C23.45 28 23 27.55 23 27C23 26.45 23.45 26 24 26Z" />
	</g>
</svg>