<svg xmlns="http://www.w3.org/2000/svg" viewBox="0 0 44 44" width="44" height="44">
	<defs>
		<clipPath clipPathUnits="userSpaceOnUse" id="cp1">
			<path d="M-1441 -679L479 -679L479 3117L-1441 3117Z" />
		</clipPath>
	</defs>
	<style>
		tspan { white-space:pre }
		.shp0 { fill: #ffffff } 
	</style>
	<g id="Home" clip-path="url(#cp1)">
		<path id="Checkmark 2@2x.png" fill-rule="evenodd" class="shp0" d="M36.4 8.11L36.38 8.12C32.75 4.35 27.65 2 22 2C10.95 2 2 10.95 2 22C2 33.05 10.95 42 22 42C33.05 42 42 33.05 42 22C42 19.39 41.48 16.9 40.57 14.61L40.6 14.61C40.48 14.26 40.54 13.86 40.82 13.58C41.21 13.19 41.84 13.18 42.23 13.57C42.35 13.69 42.43 13.84 42.47 13.99C43.45 16.48 44 19.17 44 22C44 34.15 34.15 44 22 44C9.85 44 0 34.15 0 22C0 9.85 9.85 0 22 0C28.13 0 33.65 2.53 37.64 6.58C37.68 6.61 37.73 6.62 37.76 6.66C38.16 7.05 38.16 7.68 37.77 8.08C37.4 8.46 36.79 8.47 36.4 8.11ZM43.72 7.69L40.85 10.7L40.85 10.7L39.43 12.2L39.42 12.2L22.72 29.69L22.72 29.69C22.54 29.88 22.28 30 22 30C21.72 30 21.47 29.89 21.29 29.71L11.29 19.71C11.11 19.53 11 19.28 11 19C11 18.45 11.45 18 12 18C12.28 18 12.53 18.11 12.71 18.29L21.98 27.57L38.31 10.46L38.31 10.46L39.7 8.99L39.71 9L42.28 6.31L42.28 6.31C42.46 6.12 42.71 6 43 6C43.55 6 44 6.45 44 7C44 7.27 43.89 7.51 43.72 7.69L43.72 7.69Z" />
	</g>
</svg>