<svg xmlns="http://www.w3.org/2000/svg" viewBox="0 0 21 19" width="21" height="19">
	<defs>
		<clipPath clipPathUnits="userSpaceOnUse" id="cp1">
			<path d="M-425 -1124L1495 -1124L1495 2672L-425 2672Z" />
		</clipPath>
	</defs>
	<style>
		tspan { white-space:pre }
		.shp0 { fill: #2777d1 } 
	</style>
	<g id="Home" clip-path="url(#cp1)">
		<g id="Group 26">
			<g id="star">
				<path id="Icon color" class="shp0" d="M0.2 7.85C0.03 7.73 -0.04 7.51 0.02 7.31L0.1 7.06C0.16 6.87 0.34 6.73 0.54 6.72L6.92 6.21L9.37 0.32C9.45 0.11 9.66 -0.01 9.88 0L10.14 0C10.35 0 10.54 0.13 10.61 0.32L13.07 6.21L19.45 6.72C19.66 6.73 19.83 6.87 19.89 7.06L19.97 7.31C20.04 7.51 19.98 7.72 19.82 7.85L15.01 11.99L16.49 18.19C16.53 18.39 16.46 18.6 16.3 18.72L16.01 18.88C15.84 19 15.62 19 15.45 18.88L10.01 15.59L4.55 18.91C4.38 19.03 4.16 19.03 3.99 18.91L3.77 18.76C3.6 18.64 3.53 18.43 3.58 18.23L5.02 11.99L0.2 7.85Z" />
			</g>
		</g>
	</g>
</svg>