<svg xmlns="http://www.w3.org/2000/svg" viewBox="0 0 25 20" width="25" height="20">
	<defs>
		<clipPath clipPathUnits="userSpaceOnUse" id="cp1">
			<path d="M-803 -1122L1117 -1122L1117 2674L-803 2674Z" />
		</clipPath>
	</defs>
	<style>
		tspan { white-space:pre }
		.shp0 { fill: #2777d1 } 
	</style>
	<g id="Home" clip-path="url(#cp1)">
		<g id="Group 26">
			<g id="neighborhood">
				<path id="Icon color" fill-rule="evenodd" class="shp0" d="M23.5 19L0.5 19C0.22 19 0 18.78 0 18.5L0 17.5C0 17.22 0.22 17 0.5 17L2.05 17L2.05 13.29C2.05 12.95 2.22 12.64 2.5 12.45L4.5 11.08C4.58 11.03 4.68 11 4.78 11L5.23 11C5.33 11 5.42 11.03 5.51 11.08L7 12.08L7 4.62C7.01 4.27 7.2 3.95 7.5 3.78L11.5 1.08C11.59 1.03 11.68 1 11.78 1L12.23 1C12.25 1 12.28 1 12.3 1C12.41 1 12.51 1.02 12.6 1.08L16.6 3.79C16.88 3.98 17.04 4.29 17.04 4.62L17.04 12.08L18.54 11.08C18.62 11.03 18.72 11 18.82 11L19.27 11C19.37 11 19.46 11.03 19.55 11.08L21.55 12.45C21.83 12.64 22 12.95 22 13.29L22 17L23.5 17C23.78 17 24 17.22 24 17.5L24 18.5C24 18.78 23.78 19 23.5 19ZM18.5 15C18.22 15 18 15.22 18 15.5L18 16.5C18 16.78 18.22 17 18.5 17L19.5 17C19.78 17 20 16.78 20 16.5L20 15.5C20 15.22 19.78 15 19.5 15L18.5 15ZM13.5 15C13.22 15 13 15.22 13 15.5L13 16.5C13 16.78 13.22 17 13.5 17L14.5 17C14.78 17 15 16.78 15 16.5L15 15.5C15 15.22 14.78 15 14.5 15L13.5 15ZM9.5 15C9.22 15 9 15.22 9 15.5L9 16.5C9 16.78 9.22 17 9.5 17L10.5 17C10.78 17 11 16.78 11 16.5L11 15.5C11 15.22 10.78 15 10.5 15L9.5 15ZM4.5 15C4.22 15 4 15.22 4 15.5L4 16.5C4 16.78 4.22 17 4.5 17L5.5 17C5.78 17 6 16.78 6 16.5L6 15.5C6 15.22 5.78 15 5.5 15L4.5 15ZM13.5 11C13.22 11 13 11.22 13 11.5L13 12.5C13 12.78 13.22 13 13.5 13L14.5 13C14.78 13 15 12.78 15 12.5L15 11.5C15 11.22 14.78 11 14.5 11L13.5 11ZM9.5 11C9.22 11 9 11.22 9 11.5L9 12.5C9 12.78 9.22 13 9.5 13L10.5 13C10.78 13 11 12.78 11 12.5L11 11.5C11 11.22 10.78 11 10.5 11L9.5 11ZM13.5 7C13.22 7 13 7.22 13 7.5L13 8.5C13 8.78 13.22 9 13.5 9L14.5 9C14.78 9 15 8.78 15 8.5L15 7.5C15 7.22 14.78 7 14.5 7L13.5 7ZM9.5 7C9.22 7 9 7.22 9 7.5L9 8.5C9 8.78 9.22 9 9.5 9L10.5 9C10.78 9 11 8.78 11 8.5L11 7.5C11 7.22 10.78 7 10.5 7L9.5 7Z" />
			</g>
		</g>
	</g>
</svg>