<svg xmlns="http://www.w3.org/2000/svg" viewBox="0 0 53 52" width="53" height="52">
	<defs>
		<clipPath clipPathUnits="userSpaceOnUse" id="cp1">
			<path d="M-1502 -3686L418 -3686L418 110L-1502 110Z" />
		</clipPath>
	</defs>
	<style>
		tspan { white-space:pre }
		.shp0 { fill: #53b5d9 } 
	</style>
	<g id="Home" clip-path="url(#cp1)">
		<g id="Component 1 – 1">
			<path id="LinkedIn Circle" fill-rule="evenodd" class="shp0" d="M27 52C12.64 52 1 40.36 1 26C1 11.64 12.64 0 27 0C41.36 0 53 11.64 53 26C53 40.36 41.36 52 27 52ZM27 2.36C13.95 2.36 3.36 12.95 3.36 26C3.36 39.05 13.95 49.64 27 49.64C40.05 49.64 50.64 39.05 50.64 26C50.64 12.95 40.05 2.36 27 2.36ZM32.91 28.36C32.91 27.04 32.5 25.98 31.37 25.98C29.36 25.98 29.36 28.36 29.36 28.36L29.36 35.45L24.64 35.45L24.64 22.45L29.36 22.45L29.36 24.55C29.36 24.55 29.83 22.44 33.33 22.44C36.03 22.44 37.64 24.66 37.64 28.36L37.64 35.45L32.91 35.45L32.91 28.36ZM17.55 22.44L22.25 22.44L22.25 35.45L17.55 35.45L17.55 22.44ZM19.9 21.28C18.6 21.28 17.55 20.22 17.55 18.91C17.55 17.61 18.6 16.55 19.9 16.55C21.2 16.55 22.25 17.61 22.25 18.91C22.25 20.22 21.2 21.28 19.9 21.28Z" />
		</g>
	</g>
</svg>