<svg xmlns="http://www.w3.org/2000/svg" viewBox="0 0 18 21" width="18" height="21">
	<defs>
		<clipPath clipPathUnits="userSpaceOnUse" id="cp1">
			<path d="M-1186 -1124L734 -1124L734 2672L-1186 2672Z" />
		</clipPath>
	</defs>
	<style>
		tspan { white-space:pre }
		.shp0 { fill: #2777d1 } 
	</style>
	<g id="Home" clip-path="url(#cp1)">
		<g id="Group 26">
			<g id="file_text">
				<path id="Icon color" fill-rule="evenodd" class="shp0" d="M15 21L3 21C1.9 21 1 20.1 1 19L1 7.83C1 7.3 1.22 6.78 1.59 6.41L6.41 1.59C6.78 1.21 7.3 1 7.83 1L15 1C16.1 1 17 1.9 17 3L17 19C17 20.1 16.1 21 15 21ZM4.5 15C4.22 15 4 15.22 4 15.5L4 16.5C4 16.78 4.22 17 4.5 17L9.5 17C9.78 17 10 16.78 10 16.5L10 15.5C10 15.22 9.78 15 9.5 15L4.5 15ZM4.5 11C4.22 11 4 11.22 4 11.5L4 12.5C4 12.78 4.22 13 4.5 13L13.5 13C13.78 13 14 12.78 14 12.5L14 11.5C14 11.22 13.78 11 13.5 11L4.5 11ZM8 2.82L2.82 8L7 8C7.55 8 8 7.55 8 7L8 2.82Z" />
			</g>
		</g>
	</g>
</svg>