<svg xmlns="http://www.w3.org/2000/svg" viewBox="0 0 53 52" width="53" height="52">
	<defs>
		<clipPath clipPathUnits="userSpaceOnUse" id="cp1">
			<path d="M-1430 -3686L490 -3686L490 110L-1430 110Z" />
		</clipPath>
	</defs>
	<style>
		tspan { white-space:pre }
		.shp0 { fill: #53b5d9 } 
	</style>
	<g id="Home" clip-path="url(#cp1)">
		<g id="Component 1 – 1">
			<path id="Tumblr Circle" fill-rule="evenodd" class="shp0" d="M27 52C12.64 52 1 40.36 1 26C1 11.64 12.64 0 27 0C41.36 0 53 11.64 53 26C53 40.36 41.36 52 27 52ZM27 2.36C13.95 2.36 3.36 12.95 3.36 26C3.36 39.05 13.95 49.64 27 49.64C40.05 49.64 50.64 39.05 50.64 26C50.64 12.95 40.05 2.36 27 2.36ZM28.9 32C29.35 32.25 29.86 32.37 30.43 32.37C31.45 32.37 32.69 32.14 33.7 31.51L33.69 34.42C32.83 34.8 31.83 35.07 31.13 35.22C30.44 35.37 29.78 35.45 28.97 35.45C28.06 35.45 27.29 35.34 26.59 35.12C25.88 34.9 25.28 34.59 24.78 34.19C24.28 33.78 23.94 33.36 23.75 32.9C23.55 32.45 23.46 31.79 23.46 30.92L23.46 24.79L21.09 24.82L21.09 21.63C21.88 21.39 22.55 21.04 23.12 20.59C23.68 20.14 24.13 19.6 24.47 18.97C24.81 18.34 25.05 17.54 25.17 16.56L28.18 16.55L28.18 21.27L32.91 21.27L32.91 24.79L28.18 24.79C28.18 24.79 28.17 31.19 28.18 31.24C28.3 31.56 28.57 31.81 28.9 32Z" />
		</g>
	</g>
</svg>